ffmpeg started on 2016-11-28 at 03:23:37
Report written to "Output/NVENCh264/results/ffmpeg/Tsintelllhp8000k.log"
Command line:
Tools/ffmpeg/ffmpeg -i Output/NVENCh264/encoded/sintelllhp8000k.mkv -c:v rawvideo -pix_fmt yuv420p Output/NVENCh264/transcoded/sintelllhp8000k.yuv
ffmpeg version N-82227-gdb23fde Copyright (c) 2000-2016 the FFmpeg developers
  built with gcc 5.4.0 (Ubuntu 5.4.0-6ubuntu1~16.04.2) 20160609
  configuration: --prefix=/home/jaroslav/ffmpeg_build --pkg-config-flags=--static --extra-cflags=-I/home/jaroslav/ffmpeg_build/include --extra-ldflags=-L/home/jaroslav/ffmpeg_build/lib --bindir=/home/jaroslav/bin --enable-gpl --enable-libass --enable-libfdk-aac --enable-libfreetype --enable-libmp3lame --enable-libopus --enable-libtheora --enable-libvorbis --enable-libvpx --enable-libx264 --enable-libx265 --enable-nvenc --enable-libmfx --enable-libxvid --enable-libgsm --enable-libopencore-amrnb --enable-version3 --enable-nonfree
  libavutil      55. 35.100 / 55. 35.100
  libavcodec     57. 66.101 / 57. 66.101
  libavformat    57. 57.100 / 57. 57.100
  libavdevice    57.  2.100 / 57.  2.100
  libavfilter     6. 66.100 /  6. 66.100
  libswscale      4.  3.100 /  4.  3.100
  libswresample   2.  4.100 /  2.  4.100
  libpostproc    54.  2.100 / 54.  2.100
Input #0, matroska,webm, from 'Output/NVENCh264/encoded/sintelllhp8000k.mkv':
  Metadata:
    ENCODER         : Lavf57.57.100
  Duration: 00:00:20.83, start: 0.000000, bitrate: 7979 kb/s
    Stream #0:0: Video: h264 (Main), yuv420p(progressive), 4096x1744 [SAR 1:1 DAR 256:109], 24 fps, 24 tbr, 1k tbn, 48 tbc (default)
    Metadata:
      ENCODER         : Lavc57.66.101 h264_nvenc
      DURATION        : 00:00:20.834000000
Output #0, rawvideo, to 'Output/NVENCh264/transcoded/sintelllhp8000k.yuv':
  Metadata:
    encoder         : Lavf57.57.100
    Stream #0:0: Video: rawvideo (I420 / 0x30323449), yuv420p, 4096x1744 [SAR 1:1 DAR 256:109], q=2-31, 200 kb/s, 24 fps, 24 tbn, 24 tbc (default)
    Metadata:
      DURATION        : 00:00:20.834000000
      encoder         : Lavc57.66.101 rawvideo
Stream mapping:
  Stream #0:0 -> #0:0 (h264 (native) -> rawvideo (native))
Press [q] to stop, [?] for help
frame=   19 fps=0.0 q=-0.0 size=  198816kB time=00:00:00.79 bitrate=2057305.2kbits/s speed=1.57x    frame=   39 fps= 39 q=-0.0 size=  408096kB time=00:00:01.62 bitrate=2057306.1kbits/s speed= 1.6x    frame=   60 fps= 39 q=-0.0 size=  627840kB time=00:00:02.50 bitrate=2057306.1kbits/s speed=1.63x    frame=   81 fps= 39 q=-0.0 size=  847584kB time=00:00:03.37 bitrate=2057306.1kbits/s speed=1.64x    frame=  102 fps= 39 q=-0.0 size= 1067328kB time=00:00:04.25 bitrate=2057306.1kbits/s speed=1.64x    frame=  122 fps= 40 q=-0.0 size= 1276608kB time=00:00:05.08 bitrate=2057306.2kbits/s speed=1.65x    frame=  142 fps= 40 q=-0.0 size= 1485888kB time=00:00:05.91 bitrate=2057306.0kbits/s speed=1.65x    frame=  162 fps= 39 q=-0.0 size= 1695168kB time=00:00:06.75 bitrate=2057306.1kbits/s speed=1.64x    frame=  182 fps= 40 q=-0.0 size= 1904448kB time=00:00:07.58 bitrate=2057306.2kbits/s speed=1.65x    frame=  202 fps= 40 q=-0.0 size= 2113728kB time=00:00:08.41 bitrate=2057306.0kbits/s speed=1.65x    frame=  222 fps= 40 q=-0.0 size= 2323008kB time=00:00:09.25 bitrate=2057306.1kbits/s speed=1.65x    frame=  242 fps= 40 q=-0.0 size= 2532288kB time=00:00:10.08 bitrate=2057306.2kbits/s speed=1.65x    frame=  263 fps= 40 q=-0.0 size= 2752032kB time=00:00:10.95 bitrate=2057306.2kbits/s speed=1.65x    frame=  284 fps= 40 q=-0.0 size= 2971776kB time=00:00:11.83 bitrate=2057306.2kbits/s speed=1.65x    frame=  304 fps= 40 q=-0.0 size= 3181056kB time=00:00:12.66 bitrate=2057306.1kbits/s speed=1.65x    frame=  324 fps= 40 q=-0.0 size= 3390336kB time=00:00:13.50 bitrate=2057306.1kbits/s speed=1.65x    frame=  344 fps= 40 q=-0.0 size= 3599616kB time=00:00:14.33 bitrate=2057306.2kbits/s speed=1.65x    frame=  364 fps= 40 q=-0.0 size= 3808896kB time=00:00:15.16 bitrate=2057306.1kbits/s speed=1.65x    frame=  384 fps= 40 q=-0.0 size= 4018176kB time=00:00:16.00 bitrate=2057306.1kbits/s speed=1.65x    frame=  404 fps= 40 q=-0.0 size= 4227456kB time=00:00:16.83 bitrate=2057306.2kbits/s speed=1.65x    frame=  425 fps= 40 q=-0.0 size= 4447200kB time=00:00:17.70 bitrate=2057306.2kbits/s speed=1.65x    frame=  445 fps= 40 q=-0.0 size= 4656480kB time=00:00:18.54 bitrate=2057306.1kbits/s speed=1.65x    frame=  465 fps= 40 q=-0.0 size= 4865760kB time=00:00:19.37 bitrate=2057306.1kbits/s speed=1.65x    frame=  483 fps= 39 q=-0.0 size= 5054112kB time=00:00:20.12 bitrate=2057306.1kbits/s speed=1.61x    frame=  500 fps= 39 q=-0.0 Lsize= 5232000kB time=00:00:20.83 bitrate=2057306.1kbits/s speed=1.61x    
video:5232000kB audio:0kB subtitle:0kB other streams:0kB global headers:0kB muxing overhead: 0.000000%
